<svg width="24" height="24" viewBox="0 0 24 24" fill="none" xmlns="http://www.w3.org/2000/svg">
<path d="M0 8C0 3.58172 3.58172 0 8 0H16C20.4183 0 24 3.58172 24 8V16C24 20.4183 20.4183 24 16 24H8C3.58172 24 0 20.4183 0 16V8Z" fill="white"/>
<path d="M17.6309 4.98145C17.7121 4.98971 17.7923 5.00172 17.8711 5.01758C17.8991 5.02322 17.9264 5.03152 17.9541 5.03809C18.004 5.04994 18.0538 5.06137 18.1025 5.07617C18.132 5.08511 18.1605 5.09647 18.1895 5.10645C18.2368 5.12279 18.284 5.13914 18.3301 5.1582C18.3556 5.16875 18.3802 5.18103 18.4053 5.19238C18.4525 5.21379 18.4993 5.23556 18.5449 5.25977C18.5702 5.27319 18.5944 5.28848 18.6191 5.30273C18.6611 5.32692 18.7027 5.35142 18.7432 5.37793C18.77 5.39553 18.7962 5.41402 18.8223 5.43262C18.8621 5.46099 18.9014 5.4899 18.9395 5.52051C18.9584 5.53572 18.9767 5.55163 18.9951 5.56738C19.0362 5.60243 19.0765 5.63819 19.1152 5.67578C19.1352 5.6952 19.1545 5.71528 19.1738 5.73535C19.2074 5.77022 19.2399 5.806 19.2715 5.84277C19.2911 5.86559 19.3103 5.88859 19.3291 5.91211C19.3577 5.94796 19.3845 5.98505 19.4111 6.02246C19.4311 6.0505 19.4509 6.07854 19.4697 6.10742C19.494 6.14475 19.5167 6.18301 19.5391 6.22168C19.555 6.24919 19.5711 6.27652 19.5859 6.30469C19.6039 6.33866 19.6203 6.37333 19.6367 6.4082C19.6549 6.44693 19.6732 6.48561 19.6895 6.52539C19.7064 6.56699 19.7206 6.60966 19.7354 6.65234C19.7457 6.68227 19.7574 6.71176 19.7666 6.74219C19.7808 6.78905 19.7922 6.83678 19.8037 6.88477C19.8113 6.91657 19.8198 6.94821 19.8262 6.98047C19.8341 7.02041 19.8387 7.06097 19.8447 7.10156C19.8508 7.14272 19.8583 7.1838 19.8623 7.22559C19.87 7.30563 19.875 7.38668 19.875 7.46875V16.5312L19.8623 16.7871C19.7427 17.9635 18.8073 18.899 17.6309 19.0186L17.375 19.0312H6.625L6.36914 19.0186C5.10861 18.8904 4.125 17.8256 4.125 16.5312V7.46875C4.125 6.08804 5.24429 4.96875 6.625 4.96875H17.375L17.6309 4.98145ZM18.7695 10.3027L12.8945 13.2402L12.6787 13.333C12.1671 13.5176 11.598 13.4865 11.1055 13.2402L5.23047 10.3027C5.19447 10.2847 5.15956 10.2651 5.125 10.2451V16.5312C5.125 17.3597 5.79657 18.0312 6.625 18.0312H17.375C18.2034 18.0312 18.875 17.3597 18.875 16.5312V10.2451C18.8404 10.2651 18.8055 10.2847 18.7695 10.3027ZM6.625 5.96875C5.79657 5.96875 5.125 6.64032 5.125 7.46875V8.51367C5.125 8.8924 5.33901 9.23879 5.67773 9.4082L11.5527 12.3457C11.8343 12.4865 12.1657 12.4865 12.4473 12.3457L18.3223 9.4082C18.661 9.23879 18.875 8.89241 18.875 8.51367V7.46875C18.875 6.64032 18.2034 5.96875 17.375 5.96875H6.625Z" fill="#383838"/>
</svg>
