<svg width="24" height="24" viewBox="0 0 24 24" fill="none" xmlns="http://www.w3.org/2000/svg">
<path d="M6.85714 24L17.1429 24C20.93 24 24 20.93 24 17.1429L24 6.85714C24 3.07005 20.93 0 17.1429 0L6.85714 0C3.07005 0 0 3.07005 0 6.85714L0 17.1429C0 20.93 3.07005 24 6.85714 24Z" fill="#0466DC"/>
<path d="M5.14453 6.85742V8.12599L6.85882 9.52314L10.1331 12.1889C10.656 12.6174 11.3245 12.8574 12.0017 12.8574C12.6788 12.8574 13.3474 12.6174 13.8702 12.1889L17.1445 9.51456V15.4203H6.85882V11.7431L5.14453 10.346V14.9917C5.14453 16.1746 6.10453 17.1346 7.28739 17.1346H16.716C17.8988 17.1346 18.8588 16.1746 18.8588 14.9917V6.85742H5.14453ZM12.7902 10.8603C12.3445 11.2203 11.6588 11.2203 11.2217 10.8603L8.41025 8.57171H15.6017L12.7902 10.8603Z" fill="white"/>
</svg>
