<svg width="18" height="16" viewBox="0 0 18 16" fill="none" xmlns="http://www.w3.org/2000/svg">
<path d="M16.6317 0.929565C16.0413 0.339166 15.2373 0 14.3957 0H0V2.51234H15.0363V10.5267H11.6572L10.9035 11.4939L9.10722 13.7802V15.4258H11.004L12.8757 13.039H14.3957C15.2373 13.039 16.0413 12.7124 16.6317 12.1095C17.2221 11.5191 17.5612 10.7151 17.5612 9.87349V3.15298C17.5612 2.31135 17.2221 1.5074 16.6317 0.917003V0.929565Z" fill="white"/>
<path d="M2.51234 10.5391V5.35107H0V9.8984C0 10.74 0.326604 11.544 0.929565 12.1344C1.51996 12.7248 2.32391 13.064 3.16555 13.064H9.00673V10.5516H2.51234V10.5391Z" fill="white"/>
</svg>
