<svg width="32" height="32" viewBox="0 0 32 32" fill="none" xmlns="http://www.w3.org/2000/svg">
<path d="M0 12.8C0 8.31958 0 6.07937 0.871948 4.36808C1.63893 2.86278 2.86278 1.63893 4.36808 0.871948C6.07937 0 8.31958 0 12.8 0H19.2C23.6804 0 25.9206 0 27.6319 0.871948C29.1372 1.63893 30.3611 2.86278 31.1281 4.36808C32 6.07937 32 8.31958 32 12.8V19.2C32 23.6804 32 25.9206 31.1281 27.6319C30.3611 29.1372 29.1372 30.3611 27.6319 31.1281C25.9206 32 23.6804 32 19.2 32H12.8C8.31958 32 6.07937 32 4.36808 31.1281C2.86278 30.3611 1.63893 29.1372 0.871948 27.6319C0 25.9206 0 23.6804 0 19.2V12.8Z" fill="#FF8F26"/>
<path d="M24.9798 9.10191C24.3051 8.42717 23.3863 8.03955 22.4244 8.03955H5.97217V10.9108H23.1566V20.0701H19.2947L18.4334 21.1755L16.3804 23.7883V25.669H18.5482L20.6873 22.9413H22.4244C23.3863 22.9413 24.3051 22.568 24.9798 21.8789C25.6545 21.2042 26.0422 20.2854 26.0422 19.3235V11.643C26.0422 10.6811 25.6545 9.7623 24.9798 9.08755V9.10191Z" fill="#FBF8D0"/>
<path d="M8.84341 20.0843V14.1552H5.97217V19.3521C5.97217 20.314 6.34543 21.2328 7.03453 21.9075C7.70927 22.5822 8.62807 22.9699 9.58993 22.9699H16.2656V20.0986H8.84341V20.0843Z" fill="#FBF8D0"/>
</svg>
