<svg width="32" height="32" viewBox="0 0 32 32" fill="none" xmlns="http://www.w3.org/2000/svg">
<path d="M0 12.8C0 8.31958 0 6.07937 0.871948 4.36808C1.63893 2.86278 2.86278 1.63893 4.36808 0.871948C6.07937 0 8.31958 0 12.8 0H19.2C23.6804 0 25.9206 0 27.6319 0.871948C29.1372 1.63893 30.3611 2.86278 31.1281 4.36808C32 6.07937 32 8.31958 32 12.8V19.2C32 23.6804 32 25.9206 31.1281 27.6319C30.3611 29.1372 29.1372 30.3611 27.6319 31.1281C25.9206 32 23.6804 32 19.2 32H12.8C8.31958 32 6.07937 32 4.36808 31.1281C2.86278 30.3611 1.63893 29.1372 0.871948 27.6319C0 25.9206 0 23.6804 0 19.2V12.8Z" fill="#7D42FB"/>
<path d="M25.9699 13.9111V7.60876H6.01562V10.48H23.113V13.2077C21.9645 13.5379 21.1319 14.6002 21.1319 15.8492C21.1319 17.0982 21.9645 18.1462 23.113 18.4764V21.2041H8.88687V13.7102H6.01562V24.0753H25.9842V17.773L24.2759 16.5527V15.1458L25.9842 13.9255L25.9699 13.9111Z" fill="#EDF7FF"/>
</svg>
