<svg width="32" height="32" viewBox="0 0 32 32" fill="none" xmlns="http://www.w3.org/2000/svg">
<path d="M0 12.8C0 8.31958 0 6.07937 0.871948 4.36808C1.63893 2.86278 2.86278 1.63893 4.36808 0.871948C6.07937 0 8.31958 0 12.8 0H19.2C23.6804 0 25.9206 0 27.6319 0.871948C29.1372 1.63893 30.3611 2.86278 31.1281 4.36808C32 6.07937 32 8.31958 32 12.8V19.2C32 23.6804 32 25.9206 31.1281 27.6319C30.3611 29.1372 29.1372 30.3611 27.6319 31.1281C25.9206 32 23.6804 32 19.2 32H12.8C8.31958 32 6.07937 32 4.36808 31.1281C2.86278 30.3611 1.63893 29.1372 0.871948 27.6319C0 25.9206 0 23.6804 0 19.2V12.8Z" fill="#016E7D"/>
<path d="M21.922 9.77657H16.3375L15.232 7.72363H5.71387V10.5949H13.5093L14.6147 12.6478H22.6829C22.9557 12.6478 23.1854 12.8775 23.1854 13.1503V20.917C23.1854 21.1898 22.9557 21.4195 22.6829 21.4195H9.08758C8.81481 21.4195 8.58511 21.1898 8.58511 20.917V13.825H5.71387V20.1418C5.71387 22.4244 7.56582 24.2907 9.84846 24.2907H21.922C24.2047 24.2907 26.0566 22.4388 26.0566 20.1418V13.9112C26.0566 11.6285 24.2047 9.76222 21.922 9.76222V9.77657Z" fill="white"/>
</svg>
