<svg width="32" height="32" viewBox="0 0 32 32" fill="none" xmlns="http://www.w3.org/2000/svg">
<path d="M0 12.8C0 8.31958 0 6.07937 0.871948 4.36808C1.63893 2.86278 2.86278 1.63893 4.36808 0.871948C6.07937 0 8.31958 0 12.8 0H19.2C23.6804 0 25.9206 0 27.6319 0.871948C29.1372 1.63893 30.3611 2.86278 31.1281 4.36808C32 6.07937 32 8.31958 32 12.8V19.2C32 23.6804 32 25.9206 31.1281 27.6319C30.3611 29.1372 29.1372 30.3611 27.6319 31.1281C25.9206 32 23.6804 32 19.2 32H12.8C8.31958 32 6.07937 32 4.36808 31.1281C2.86278 30.3611 1.63893 29.1372 0.871948 27.6319C0 25.9206 0 23.6804 0 19.2V12.8Z" fill="#DB4EE0"/>
<path d="M5.74243 7.52258V10.3938H23.3862V12.5473L17.1586 18.7204V22.0798H14.8203V18.7204C14.8203 18.7204 11.1834 15.0596 9.86267 13.7675H5.75679L11.4466 19.4382C11.7768 19.7541 11.9634 20.1991 11.9634 20.6585V24.0466L20.0298 24.0753V20.6585C20.0298 20.1991 20.2164 19.7541 20.5466 19.4382L26.2575 13.7532V7.52258H5.74243Z" fill="#F1FCFF"/>
</svg>
