<svg width="32" height="32" viewBox="0 0 32 32" fill="none" xmlns="http://www.w3.org/2000/svg">
<path d="M0 12.8C0 8.31958 0 6.07937 0.871948 4.36808C1.63893 2.86278 2.86278 1.63893 4.36808 0.871948C6.07937 0 8.31958 0 12.8 0H19.2C23.6804 0 25.9206 0 27.6319 0.871948C29.1372 1.63893 30.3611 2.86278 31.1281 4.36808C32 6.07937 32 8.31958 32 12.8V19.2C32 23.6804 32 25.9206 31.1281 27.6319C30.3611 29.1372 29.1372 30.3611 27.6319 31.1281C25.9206 32 23.6804 32 19.2 32H12.8C8.31958 32 6.07937 32 4.36808 31.1281C2.86278 30.3611 1.63893 29.1372 0.871948 27.6319C0 25.9206 0 23.6804 0 19.2V12.8Z" fill="url(#paint0_radial_33819_3494)"/>
<path d="M0 12.8C0 8.31958 0 6.07937 0.871948 4.36808C1.63893 2.86278 2.86278 1.63893 4.36808 0.871948C6.07937 0 8.31958 0 12.8 0H19.2C23.6804 0 25.9206 0 27.6319 0.871948C29.1372 1.63893 30.3611 2.86278 31.1281 4.36808C32 6.07937 32 8.31958 32 12.8V19.2C32 23.6804 32 25.9206 31.1281 27.6319C30.3611 29.1372 29.1372 30.3611 27.6319 31.1281C25.9206 32 23.6804 32 19.2 32H12.8C8.31958 32 6.07937 32 4.36808 31.1281C2.86278 30.3611 1.63893 29.1372 0.871948 27.6319C0 25.9206 0 23.6804 0 19.2V12.8Z" fill="#0B3D3D" fill-opacity="0.8"/>
<path d="M26.0278 9.05875L24.9941 8.75727C21.9219 7.86719 18.5769 8.45579 16.0071 10.3221C14.2413 9.0444 12.0305 8.34094 9.89139 8.34094H5.9865V11.2122H9.9201C11.5567 11.2122 13.179 11.7577 14.471 12.7483L16.0215 13.9255L17.572 12.7483C19.1799 11.528 21.2041 11.0112 23.1852 11.284V20.8308C20.6585 20.5724 18.1031 21.2472 16.0358 22.7546C13.9686 21.2472 11.3844 20.5724 8.88645 20.8308V14.4567H6.01521V23.6447H26.0708V9.05875H26.0278Z" fill="#58FF9B"/>
<defs>
<radialGradient id="paint0_radial_33819_3494" cx="0" cy="0" r="1" gradientUnits="userSpaceOnUse" gradientTransform="translate(32.0577 -27.7538) rotate(105.042) scale(61.8738)">
<stop offset="0.445162" stop-color="#1F7676"/>
<stop offset="1" stop-color="#0A4B4B"/>
</radialGradient>
</defs>
</svg>
