<svg width="32" height="32" viewBox="0 0 32 32" fill="none" xmlns="http://www.w3.org/2000/svg">
<path d="M9.14286 32H22.8571C27.9066 32 32 27.9066 32 22.8571L32 9.14286C32 4.0934 27.9066 0 22.8571 0L9.14286 0C4.0934 0 0 4.0934 0 9.14286V22.8571C0 27.9066 4.0934 32 9.14286 32Z" fill="#0466DC"/>
<path d="M6.85547 9.14282V10.8343L9.14118 12.6971L13.5069 16.2514C14.204 16.8228 15.0955 17.1428 15.9983 17.1428C16.9012 17.1428 17.7926 16.8228 18.4898 16.2514L22.8555 12.6857V20.56H9.14118V15.6571L6.85547 13.7943V19.9885C6.85547 21.5657 8.13547 22.8457 9.71261 22.8457H22.284C23.8612 22.8457 25.1412 21.5657 25.1412 19.9885V9.14282H6.85547ZM17.0498 14.48C16.4555 14.96 15.5412 14.96 14.9583 14.48L11.2098 11.4285H20.7983L17.0498 14.48Z" fill="white"/>
</svg>
