<svg width="14" height="14" viewBox="0 0 14 14" fill="none" xmlns="http://www.w3.org/2000/svg">
<path d="M10.8096 2.56274C11.0856 2.56288 11.3096 2.78668 11.3096 3.06274V10.9377C11.3096 11.2138 11.0856 11.4376 10.8096 11.4377C10.5335 11.4377 10.3096 11.2139 10.3096 10.9377V3.06274C10.3096 2.7866 10.5334 2.56274 10.8096 2.56274ZM4.70216 3.73364C4.89736 3.53845 5.21392 3.53857 5.40919 3.73364C5.60444 3.9289 5.60444 4.24541 5.40919 4.44067L3.34962 6.50024H8.26759C8.54373 6.50024 8.76759 6.7241 8.76759 7.00024C8.76746 7.27627 8.54365 7.50024 8.26759 7.50024H3.34962L5.40919 9.55981C5.60435 9.75509 5.60442 10.0716 5.40919 10.2668C5.21394 10.4618 4.89733 10.4619 4.70216 10.2668L1.78908 7.35376C1.59411 7.15859 1.5942 6.84195 1.78908 6.64673L4.70216 3.73364Z" fill="#525252"/>
</svg>
