<svg width="14" height="14" viewBox="0 0 14 14" fill="none" xmlns="http://www.w3.org/2000/svg">
<path d="M11 0C12.6569 1.28851e-07 14 1.34315 14 3V11C14 12.6569 12.6569 14 11 14H3C1.34315 14 1.61067e-08 12.6569 0 11V3C1.28853e-07 1.34315 1.34315 1.61064e-08 3 0H11ZM6.44727 2C6.17153 2.00014 5.94565 2.12189 5.79492 2.35254C5.34712 3.03783 5.69538 4.46901 6.14453 5.5293C5.93526 6.12007 5.67445 6.75715 5.38672 7.37793C5.06221 8.07825 4.74134 8.71525 4.43262 9.27246C3.55085 9.68964 2.14447 10.4649 2.01074 11.2197C1.97219 11.4385 2.03674 11.6393 2.19727 11.7998C2.32818 11.9307 2.48969 12 2.66406 12C3.02301 12 3.63433 11.7568 4.80859 9.67773C5.48539 9.3673 6.22852 9.08876 6.96289 8.87109C7.49656 8.71309 8.03084 8.58895 8.55273 8.50195C9.41312 9.03003 10.4132 9.36816 11.125 9.36816C11.9118 9.36807 11.9928 8.92245 11.999 8.78613C12.0075 8.59951 11.941 8.4267 11.8066 8.28613C11.5212 7.98743 10.939 7.83594 10.0771 7.83594C9.64826 7.83596 9.17429 7.87497 8.66699 7.95117C8.15362 7.61256 7.72936 7.21346 7.43652 6.79297C7.16142 6.39829 6.91742 5.96613 6.70996 5.50781C7.27185 3.86218 7.38143 2.78074 7.03516 2.29395C6.89813 2.10161 6.69443 2 6.44727 2ZM3.93164 10.1201C3.11928 11.3988 2.74074 11.4736 2.66406 11.4736C2.63883 11.4736 2.60968 11.468 2.56934 11.4277C2.52639 11.3845 2.52208 11.3525 2.5293 11.3115C2.57288 11.0651 3.02443 10.6272 3.93164 10.1201ZM6.4668 6.20801C6.63034 6.51811 6.81047 6.81463 7.00488 7.09375C7.24501 7.43849 7.56012 7.76883 7.93262 8.06738L7.87988 8.0752L7.90234 8.08984C7.5415 8.16627 7.1771 8.25847 6.81348 8.36621C6.28226 8.52362 5.74631 8.71196 5.23242 8.9209L5.24902 8.8916L5.22754 8.90137C5.43681 8.49714 5.6501 8.06108 5.86426 7.59863C6.07613 7.14141 6.27391 6.67485 6.44824 6.22363L6.45508 6.24023L6.4668 6.20801ZM10.0771 8.3623C11.0724 8.3623 11.3608 8.58167 11.4258 8.64941C11.4699 8.69548 11.4745 8.73259 11.4727 8.76855C11.4627 8.7841 11.3748 8.84174 11.125 8.8418C10.7342 8.8418 10.1161 8.69878 9.45117 8.38867C9.66978 8.37113 9.87885 8.36231 10.0771 8.3623ZM6.44727 2.52637C6.53509 2.52637 6.57441 2.55522 6.60547 2.59863C6.75982 2.81561 6.77036 3.48571 6.4043 4.73145C6.06591 3.71675 6.04887 2.92737 6.23633 2.64062C6.28857 2.56073 6.35166 2.52648 6.44727 2.52637Z" fill="#E03636"/>
</svg>
