<svg width="14" height="14" viewBox="0 0 14 14" fill="none" xmlns="http://www.w3.org/2000/svg">
<g clip-path="url(#clip0_30394_2556)">
<rect width="14" height="14" rx="3" fill="#525252"/>
<g filter="url(#filter0_i_30394_2556)">
<path d="M7 9H9V10.25C9 11.3546 8.10457 12.25 7 12.25C5.89543 12.25 5 11.3546 5 10.25V8H7V9ZM7 9.75C6.58579 9.75 6.25 10.0858 6.25 10.5C6.25 10.9142 6.58579 11.25 7 11.25C7.41421 11.25 7.75 10.9142 7.75 10.5C7.75 10.0858 7.41421 9.75 7 9.75ZM9 8H7V7H9V8ZM7 7H5V6H7V7ZM9 6H7V5H9V6ZM7 5H5V4H7V5ZM9 4H7V3H9V4ZM7 3H5V2H7V3ZM9 2H7V1H9V2ZM7 1H5V0H7V1Z" fill="#7C7C7C"/>
</g>
</g>
<defs>
<filter id="filter0_i_30394_2556" x="5" y="0" width="4" height="12.75" filterUnits="userSpaceOnUse" color-interpolation-filters="sRGB">
<feFlood flood-opacity="0" result="BackgroundImageFix"/>
<feBlend mode="normal" in="SourceGraphic" in2="BackgroundImageFix" result="shape"/>
<feColorMatrix in="SourceAlpha" type="matrix" values="0 0 0 0 0 0 0 0 0 0 0 0 0 0 0 0 0 0 127 0" result="hardAlpha"/>
<feOffset dy="0.5"/>
<feGaussianBlur stdDeviation="0.5"/>
<feComposite in2="hardAlpha" operator="arithmetic" k2="-1" k3="1"/>
<feColorMatrix type="matrix" values="0 0 0 0 0 0 0 0 0 0 0 0 0 0 0 0 0 0 0.25 0"/>
<feBlend mode="normal" in2="shape" result="effect1_innerShadow_30394_2556"/>
</filter>
<clipPath id="clip0_30394_2556">
<rect width="14" height="14" fill="white"/>
</clipPath>
</defs>
</svg>
